<?xml version="1.0" encoding="UTF-8" standalone="no"?>
<svg
   version="1.1"
   height="106"
   width="106"
   id="svg92"
   sodipodi:docname="defold-rs.svg"
   inkscape:version="1.2.2 (b0a8486541, 2022-12-01)"
   inkscape:export-filename="defold-rs.png"
   inkscape:export-xdpi="927.39624"
   inkscape:export-ydpi="927.39624"
   xmlns:inkscape="http://www.inkscape.org/namespaces/inkscape"
   xmlns:sodipodi="http://sodipodi.sourceforge.net/DTD/sodipodi-0.dtd"
   xmlns:xlink="http://www.w3.org/1999/xlink"
   xmlns="http://www.w3.org/2000/svg"
   xmlns:svg="http://www.w3.org/2000/svg">
  <defs
     id="defs96">
    <linearGradient
       id="SVGID_1_"
       gradientUnits="userSpaceOnUse"
       x1="-124.5723"
       y1="507.32059"
       x2="39.118801"
       y2="413.33759"
       gradientTransform="matrix(1,0,0,-1,0,796)">
		<stop
   offset="0"
   style="stop-color:#1C68EC"
   id="stop3748" />

		<stop
   offset="1"
   style="stop-color:#00E9DF"
   id="stop3750" />

	</linearGradient>
    <linearGradient
       id="SVGID_2_"
       gradientUnits="userSpaceOnUse"
       x1="-178.1252"
       y1="492.00769"
       x2="-23.7672"
       y2="403.0087"
       gradientTransform="matrix(1,0,0,-1,0,796)">
		<stop
   offset="0"
   style="stop-color:#FF3C2A"
   id="stop3755" />

		<stop
   offset="1"
   style="stop-color:#FFD215"
   id="stop3757" />

	</linearGradient>
  </defs>
  <sodipodi:namedview
     id="namedview94"
     pagecolor="#ffffff"
     bordercolor="#000000"
     borderopacity="0.25"
     inkscape:showpageshadow="2"
     inkscape:pageopacity="0.0"
     inkscape:pagecheckerboard="0"
     inkscape:deskcolor="#d1d1d1"
     showgrid="false"
     inkscape:zoom="2.8284271"
     inkscape:cx="19.975767"
     inkscape:cy="29.344931"
     inkscape:window-width="1920"
     inkscape:window-height="1043"
     inkscape:window-x="1920"
     inkscape:window-y="0"
     inkscape:window-maximized="1"
     inkscape:current-layer="svg92" />
  <g
     id="logo"
     transform="translate(53, 53)">
    <g
       id="gear">
      <circle
         r="43"
         fill="none"
         stroke="black"
         stroke-width="9"
         id="circle2" />
      <g
         id="cogs">
        <polygon
           id="cog"
           stroke="black"
           stroke-width="3"
           stroke-linejoin="round"
           points="46,3 51,0 46,-3" />
        <use
           xlink:href="#cog"
           transform="rotate(11.25)"
           id="use5" />
        <use
           xlink:href="#cog"
           transform="rotate(22.50)"
           id="use7" />
        <use
           xlink:href="#cog"
           transform="rotate(33.75)"
           id="use9" />
        <use
           xlink:href="#cog"
           transform="rotate(45.00)"
           id="use11" />
        <use
           xlink:href="#cog"
           transform="rotate(56.25)"
           id="use13" />
        <use
           xlink:href="#cog"
           transform="rotate(67.50)"
           id="use15" />
        <use
           xlink:href="#cog"
           transform="rotate(78.75)"
           id="use17" />
        <use
           xlink:href="#cog"
           transform="rotate(90.00)"
           id="use19" />
        <use
           xlink:href="#cog"
           transform="rotate(101.25)"
           id="use21" />
        <use
           xlink:href="#cog"
           transform="rotate(112.50)"
           id="use23" />
        <use
           xlink:href="#cog"
           transform="rotate(123.75)"
           id="use25" />
        <use
           xlink:href="#cog"
           transform="rotate(135.00)"
           id="use27" />
        <use
           xlink:href="#cog"
           transform="rotate(146.25)"
           id="use29" />
        <use
           xlink:href="#cog"
           transform="rotate(157.50)"
           id="use31" />
        <use
           xlink:href="#cog"
           transform="rotate(168.75)"
           id="use33" />
        <use
           xlink:href="#cog"
           transform="rotate(180.00)"
           id="use35" />
        <use
           xlink:href="#cog"
           transform="rotate(191.25)"
           id="use37" />
        <use
           xlink:href="#cog"
           transform="rotate(202.50)"
           id="use39" />
        <use
           xlink:href="#cog"
           transform="rotate(213.75)"
           id="use41" />
        <use
           xlink:href="#cog"
           transform="rotate(225.00)"
           id="use43" />
        <use
           xlink:href="#cog"
           transform="rotate(236.25)"
           id="use45" />
        <use
           xlink:href="#cog"
           transform="rotate(247.50)"
           id="use47" />
        <use
           xlink:href="#cog"
           transform="rotate(258.75)"
           id="use49" />
        <use
           xlink:href="#cog"
           transform="rotate(270.00)"
           id="use51" />
        <use
           xlink:href="#cog"
           transform="rotate(281.25)"
           id="use53" />
        <use
           xlink:href="#cog"
           transform="rotate(292.50)"
           id="use55" />
        <use
           xlink:href="#cog"
           transform="rotate(303.75)"
           id="use57" />
        <use
           xlink:href="#cog"
           transform="rotate(315.00)"
           id="use59" />
        <use
           xlink:href="#cog"
           transform="rotate(326.25)"
           id="use61" />
        <use
           xlink:href="#cog"
           transform="rotate(337.50)"
           id="use63" />
        <use
           xlink:href="#cog"
           transform="rotate(348.75)"
           id="use65" />
      </g>
      <g
         id="mounts">
        <polygon
           id="mount"
           stroke="black"
           stroke-width="6"
           stroke-linejoin="round"
           points="-7,-42 0,-35 7,-42" />
        <use
           xlink:href="#mount"
           transform="rotate(72)"
           id="use69" />
        <use
           xlink:href="#mount"
           transform="rotate(144)"
           id="use71" />
        <use
           xlink:href="#mount"
           transform="rotate(216)"
           id="use73" />
        <use
           xlink:href="#mount"
           transform="rotate(288)"
           id="use75" />
      </g>
    </g>
    <g
      id="holes">
      <circle
         cy="-40"
         r="3"
         id="hole" />
      <use
         fill="#00e9df"
         xlink:href="#hole"
         transform="rotate(72)"
         id="use82" />
      <use
         fill="#00e9df"
         xlink:href="#hole"
         transform="rotate(144)"
         id="use84" />
      <use
         fill="#ff6125"
         xlink:href="#hole"
         transform="rotate(216)"
         id="use86" />
      <use
         fill="#ff6125"
         xlink:href="#hole"
         transform="rotate(288)"
         id="use88" />
    </g>
  </g>
  <g
     id="g1857"
     transform="matrix(0.24024266,0,0,0.24024266,38.426755,38.713547)"
     style="opacity:1;fill:#000000;fill-opacity:1">
    <path
       d="m 211.39952,76.028905 -51.123,-29.395002 v 58.790007 l -45.862,-26.370005 V 20.263903 L 63.290523,-9.1310966 V -61.871097 l 51.122997,29.395 10e-4,-58.79 45.862,26.37 v 58.7900004 l 51.123,29.3949996 z m -51.123,88.185005 -43.232,-24.858 43.232,-24.857 z m -199.231997,-49.715 43.2320003,24.858 -43.2320003,24.857 z m -51.123,-38.470005 V 23.288903 l 51.123,-29.3949996 V -64.896097 l 45.8620003,-26.37 0.001,58.79 51.1219997,-29.395 V -9.1310966 L 6.9065233,20.263903 V 79.053905 L -38.955477,105.42391 V 46.633903 Z m 145.478,-142.438002 -43.231,24.858 -0.001,-49.715 z M 109.15352,79.053905 63.290523,105.42391 V 52.683903 l 45.862997,-26.37 z M 58.029523,52.683903 v 52.740007 l -45.862,-26.370005 V 26.313903 Z m 51.123997,-143.95 -0.001,49.715 -43.230997,-24.858 z m 56.384,82.1350004 V -67.921097 l -53.754,-30.907 -51.122997,29.395 -51.1229997,-29.395 -53.7540003,30.907 v 58.7900004 l -51.123,29.3949996 v 61.815002 l 51.123,29.395005 v 58.79 l 53.7540003,30.908 51.1229997,-29.395 51.122997,29.395 53.754,-30.908 v -58.79 l 51.123,-29.395005 V 20.263903 Z"
       style="clip-rule:evenodd;fill:#000000;fill-rule:nonzero;stroke-linejoin:round;stroke-miterlimit:2;fill-opacity:1"
       id="path295" />
  </g>
  <g
     id="g3762"
     transform="matrix(0.30157162,0,0,0.30157162,71.999011,-60.700191)">
	<path
   class="st0"
   d="M -22.667,347.115 -63,370.394 -103.333,347.115 -63,323.836 c 0,0 40.333,23.279 40.333,23.279 z m 40.334,23.279 v 46.558 L 58,393.673 Z m -201.626,23.279 40.333,23.279 V 370.394 Z M -63,463.509 -22.667,486.788 17.666,463.509 -22.667,440.23 17.666,416.951 -22.667,393.673 -63,416.952 l -40.333,-23.279 -40.333,23.279 40.333,23.279 -40.333,23.279 40.333,23.279 z"
   id="path3746"
   style="fill:#000000;fill-opacity:1" />

	
		<linearGradient
   id="linearGradient3788"
   gradientUnits="userSpaceOnUse"
   x1="-124.5723"
   y1="507.32059"
   x2="39.118801"
   y2="413.33759"
   gradientTransform="matrix(1,0,0,-1,0,796)">
		<stop
   offset="0"
   style="stop-color:#1C68EC"
   id="stop3784" />

		<stop
   offset="1"
   style="stop-color:#00E9DF"
   id="stop3786" />

	</linearGradient>

	<path
   class="st1"
   d="m 17.625,416.952 v 46.558 l -40.333,-23.279 c 0,0 40.333,-23.279 40.333,-23.279 z m -80.625,0 v -46.558 l -40.333,-23.279 v 46.558 z M -103.333,254 v 46.558 L -63,277.279 Z m 80.666,139.673 40.333,23.279 V 370.394 L 58,393.673 V 347.115 L 17.667,323.836 V 277.278 L -22.667,254 v 46.558 L -63,277.279 v 46.558 l 40.333,23.279 c 0,0 0,46.557 0,46.557 z"
   id="path3753"
   style="fill:url(#SVGID_1_)" />

	
		<linearGradient
   id="linearGradient3795"
   gradientUnits="userSpaceOnUse"
   x1="-178.1252"
   y1="492.00769"
   x2="-23.7672"
   y2="403.0087"
   gradientTransform="matrix(1,0,0,-1,0,796)">
		<stop
   offset="0"
   style="stop-color:#FF3C2A"
   id="stop3791" />

		<stop
   offset="1"
   style="stop-color:#FFD215"
   id="stop3793" />

	</linearGradient>

	<path
   class="st2"
   d="m -63,416.952 v -46.558 l 40.333,-23.279 v 46.558 z m 0,-139.673 40.333,23.279 V 254 c 0,0 -40.333,23.279 -40.333,23.279 z M -103.333,347.115 -63,323.836 v -46.558 l -40.333,23.279 V 254 l -40.333,23.279 v 46.558 L -184,347.115 v 46.558 l 40.333,-23.279 v 46.558 l 40.333,-23.279 z m -40.292,69.837 v 46.558 l 40.333,-23.279 z"
   id="path3760"
   style="fill:url(#SVGID_2_)" />

</g>
</svg>
